<?xml version="1.0" encoding="utf-8"?>
<!-- Generator: Adobe Illustrator 24.1.2, SVG Export Plug-In . SVG Version: 6.00 Build 0)  -->
<svg version="1.1" id="Layer_1" xmlns="http://www.w3.org/2000/svg" xmlns:xlink="http://www.w3.org/1999/xlink" x="0px" y="0px"
	 viewBox="0 0 1280 1024" style="enable-background:new 0 0 1280 1024;" xml:space="preserve">
<style type="text/css">
	.st0{fill:#6482FE;}
</style>
<path class="st0" d="M237.13,645.5L237.13,645.5c-43.15,0-78.13-34.98-78.13-78.12v-280c0-43.15,34.98-78.12,78.12-78.12h0
	c43.15,0,78.12,34.98,78.12,78.12v280C315.25,610.52,280.27,645.5,237.13,645.5z"/>
<path class="st0" d="M418.13,645.5L418.13,645.5c-43.15,0-78.13-34.98-78.13-78.12v-175c0-43.15,34.98-78.12,78.12-78.12h0
	c43.15,0,78.12,34.98,78.12,78.12v175C496.25,610.52,461.27,645.5,418.13,645.5z"/>
<path class="st0" d="M597.13,645.5L597.13,645.5c-43.15,0-78.13-34.98-78.13-78.12v-100c0-43.15,34.98-78.12,78.12-78.12h0
	c43.15,0,78.12,34.98,78.12,78.12v100C675.25,610.52,640.27,645.5,597.13,645.5z"/>
</svg>
